<svg xmlns="http://www.w3.org/2000/svg"><symbol id="svg-cross-circle" viewBox="0 0 26 26"><title>cross icon</title><path d="M14.23 13l4.3-4.31a.87.87 0 1 0-1.23-1.21L13 11.77 8.7 7.48a.87.87 0 0 0-.7-.27.87.87 0 0 0-.51 1.48L11.77 13l-4.3 4.3a.87.87 0 1 0 1.23 1.22l4.3-4.3 4.3 4.3a.87.87 0 1 0 1.23-1.22z"/><path d="M13 0a13 13 0 1 0 13 13A13 13 0 0 0 13 0zm0 24.27A11.27 11.27 0 1 1 24.27 13 11.25 11.25 0 0 1 13 24.27z"/></symbol><symbol id="svg-papers" viewBox="0 0 19 21"><title>Papers icon</title><path d="M5.91 6.56h9.19v1.31H5.91zM9.19 16.41h5.91v1.31H9.19zM5.91 9.19h9.19v1.31H5.91z"/><path d="M17.72 2.63h-2v-2a.65.65 0 0 0-.63-.63H.66A.65.65 0 0 0 0 .66v17.06a.65.65 0 0 0 .66.66h2v2a.65.65 0 0 0 .66.66h14.4a.65.65 0 0 0 .66-.66V3.28a.65.65 0 0 0-.66-.65zm-15.09.65v13.78H1.31V1.31h13.13v1.32H3.28a.65.65 0 0 0-.65.65zm14.43 16.41H3.94V3.94h13.12z"/><path d="M5.91 11.81h9.19v1.31H5.91z"/></symbol><symbol id="svg-pencil-box" viewBox="0 0 30 30"><title>Pencil icon in a box</title><path d="M25.33 13.33a1 1 0 0 0-1 1v13.34h-22v-22h13.34a1 1 0 0 0 1-1 1 1 0 0 0-1-1H1.33a1.11 1.11 0 0 0-1 1v24a1 1 0 0 0 1 1h24a1 1 0 0 0 1-1V14.34a1 1 0 0 0-1-1.01z"/><path d="M29.37 4.4L25.6.63a1 1 0 0 0-.82-.29 1 1 0 0 0-.59.29L9.1 15.71a1 1 0 0 0-.29.59l-.47 4.24a1 1 0 0 0 1.1 1.1l4.24-.47a1 1 0 0 0 .6-.28L29.37 5.82a1 1 0 0 0 0-1.42zM13.12 19.23l-2.66.3.29-2.65L24.89 2.74l2.35 2.36z"/></symbol><symbol id="svg-tick-circle" viewBox="0 0 26 26"><title>tick icon</title><path d="M13 .16A12.84 12.84 0 1 0 25.84 13 12.84 12.84 0 0 0 13 .16zm0 23.4A10.56 10.56 0 1 1 23.56 13 10.58 10.58 0 0 1 13 23.56z"/><path d="M17.52 9l-5.95 5.62-3.09-3.08a1.15 1.15 0 0 0-1.63 1.63L10.76 17a1.13 1.13 0 0 0 .81.33 1.06 1.06 0 0 0 .78-.33l6.73-6.4A1.13 1.13 0 0 0 17.52 9z"/></symbol><symbol id="svg-video-camera" viewBox="0 0 29 18"><title>video-camera</title><path d="M28.67 1.54a.71.71 0 0 0-.68 0l-6.59 3.3v-1.4A3.47 3.47 0 0 0 17.9 0H3.49A3.47 3.47 0 0 0 0 3.45v11.1A3.42 3.42 0 0 0 1 17a3.52 3.52 0 0 0 2.47 1H17.9a3.52 3.52 0 0 0 2.47-1 3.42 3.42 0 0 0 1-2.44v-1.38l6.63 3.3a.71.71 0 0 0 .68 0 .69.69 0 0 0 .33-.59V2.13a.69.69 0 0 0-.34-.59zM20 14.55a2.08 2.08 0 0 1-2.1 2.07H3.49a2.08 2.08 0 0 1-2.1-2.07V3.45a2.08 2.08 0 0 1 2.1-2.07H17.9A2.08 2.08 0 0 1 20 3.45zm7.6.19l-6.21-3.1V6.36l6.21-3.11z"/></symbol></svg>