<svg xmlns="http://www.w3.org/2000/svg" viewBox="0 0 19 21">
  <title>Papers icon</title>
  <rect x="5.91" y="6.56" width="9.19" height="1.31"/>
  <rect x="9.19" y="16.41" width="5.91" height="1.31"/>
  <rect x="5.91" y="9.19" width="9.19" height="1.31"/>
  <path d="M17.72,2.63h-2v-2A.65.65,0,0,0,15.09,0H.66A.65.65,0,0,0,0,.66V17.72a.65.65,0,0,0,.66.66h2v2a.65.65,0,0,0,.66.66H17.72a.65.65,0,0,0,.66-.66V3.28A.65.65,0,0,0,17.72,2.63ZM2.63,3.28V17.06H1.31V1.31H14.44V2.63H3.28A.65.65,0,0,0,2.63,3.28ZM17.06,19.69H3.94V3.94H17.06Z"/>
  <rect x="5.91" y="11.81" width="9.19" height="1.31"/>
</svg>
