<svg xmlns="http://www.w3.org/2000/svg" viewBox="0 0 30 30">
  <title>Pencil icon in a box</title>
  <path d="M25.33,13.33a1,1,0,0,0-1,1V27.67h-22v-22H15.67a1,1,0,0,0,1-1,1,1,0,0,0-1-1H1.33a1.11,1.11,0,0,0-1,1v24a1,1,0,0,0,1,1h24a1,1,0,0,0,1-1V14.34A1,1,0,0,0,25.33,13.33Z"/>
  <path d="M29.37,4.4,25.6.63a1,1,0,0,0-.82-.29h0a1,1,0,0,0-.59.29L9.1,15.71a1,1,0,0,0-.29.59l-.47,4.24a1,1,0,0,0,1.1,1.1l4.24-.47a1,1,0,0,0,.6-.28L29.37,5.82a1,1,0,0,0,0-1.42ZM13.12,19.23l-2.66.3.29-2.65L24.89,2.74l2.35,2.36Z"/>
</svg>
