<svg xmlns="http://www.w3.org/2000/svg" viewBox="0 0 29 18">
  <title>video-camera</title>
  <path d="M28.67,1.54a.71.71,0,0,0-.68,0l-6.59,3.3V3.44A3.47,3.47,0,0,0,17.9,0H3.49A3.47,3.47,0,0,0,0,3.45V14.55A3.42,3.42,0,0,0,1,17a3.52,3.52,0,0,0,2.47,1H17.9a3.52,3.52,0,0,0,2.47-1,3.42,3.42,0,0,0,1-2.44V13.18L28,16.48h0a.71.71,0,0,0,.68,0,.69.69,0,0,0,.33-.59V2.13A.69.69,0,0,0,28.67,1.54ZM20,14.55h0a2.08,2.08,0,0,1-2.1,2.07H3.49a2.08,2.08,0,0,1-2.1-2.07V3.45a2.08,2.08,0,0,1,2.1-2.07H17.9A2.08,2.08,0,0,1,20,3.45Zm7.6.19-6.21-3.1V6.36L27.6,3.25Z"/>
</svg>
